<svg width="8" height="12" viewBox="0 0 8 12" fill="none" xmlns="http://www.w3.org/2000/svg">
<path d="M7.05479 6.42578L1.7501 11.7305C1.62249 11.8581 1.46755 11.9219 1.28525 11.9219C1.10296 11.9219 0.948014 11.8581 0.82041 11.7305L0.218848 11.1289C0.0912436 11.0013 0.0183269 10.8464 9.77516e-05 10.6641C9.77516e-05 10.4818 0.0638998 10.3268 0.191504 10.1992L4.42979 5.96094L0.191504 1.72266C0.0638998 1.59505 9.77516e-05 1.4401 9.77516e-05 1.25781C0.0183269 1.07552 0.0912436 0.920573 0.218848 0.792969L0.82041 0.191406C0.948014 0.0638021 1.10296 0 1.28525 0C1.46755 0 1.62249 0.0638021 1.7501 0.191406L7.05479 5.49609C7.20062 5.6237 7.27354 5.77865 7.27354 5.96094C7.27354 6.14323 7.20062 6.29818 7.05479 6.42578Z" fill="#616161"/>
</svg>
