<svg width="19" height="22" viewBox="0 0 19 22" fill="none" xmlns="http://www.w3.org/2000/svg">
<path d="M15.332 11.5723C15.332 11.6699 15.1855 14.5508 18.3593 16.0645C17.7734 17.8711 15.7226 21.875 13.33 21.875C11.9628 21.875 11.1816 20.9961 9.61909 20.9961C8.00776 20.9961 7.12886 21.875 5.90815 21.875C3.5644 21.9727 1.31831 17.5781 0.683545 15.7715C0.195264 14.4043 -4.86374e-05 13.0859 -4.86374e-05 11.8164C-4.86374e-05 7.4707 2.88081 5.37109 5.61519 5.32227C6.93355 5.32227 8.5937 6.25 9.32612 6.25C10.0097 6.25 11.914 5.12695 13.6718 5.27344C15.4785 5.41992 16.8457 6.10352 17.7734 7.42188C16.1621 8.44727 15.332 9.76562 15.332 11.5723ZM12.5976 3.56445C11.621 4.6875 10.4492 5.32227 9.17964 5.22461C9.08198 3.90625 9.57026 2.68555 10.4492 1.70898C11.2304 0.830078 12.5976 0.0976562 13.7695 0C13.7695 0.537109 13.916 2.00195 12.5976 3.56445Z" fill="white"/>
<a href="https://www.figma.com/design/Zo6jkxWkt6KhJdxu9rbYBl?node-id=41-2">
<rect fill="black" fill-opacity="0" x="0.155469" y="-1.875" width="18.75" height="28.75"/>
</a>
</svg>
