<svg width="17" height="18" viewBox="0 0 17 18" fill="none" xmlns="http://www.w3.org/2000/svg">
<path d="M10.5469 8.26172L2.77739 0.457031L12.6563 6.15234L10.5469 8.26172ZM0.773487 0L9.77349 9L0.773487 18C0.316456 17.7891 4.95911e-05 17.332 4.95911e-05 16.7695V1.26562C4.95911e-05 0.703125 0.316456 0.246094 0.773487 0ZM15.7149 7.94531C16.3829 8.4375 16.3829 9.59766 15.75 10.0898L13.6407 11.2852L11.3204 9L13.6407 6.75L15.7149 7.94531ZM2.77739 17.543L10.5469 9.77344L12.6563 11.8828L2.77739 17.543Z" fill="white"/>
<a href="https://www.figma.com/design/Zo6jkxWkt6KhJdxu9rbYBl?node-id=41-2">
<rect fill="black" fill-opacity="0" x="0.153126" y="-1.35" width="18" height="20.7"/>
</a>
</svg>
