<svg width="16" height="18" viewBox="0 0 16 18" fill="none" xmlns="http://www.w3.org/2000/svg">
<path d="M12.3749 5.625H15.7499V15.1875C15.7499 15.9609 15.4687 16.6172 14.9062 17.1562C14.3671 17.7188 13.7108 18 12.9374 18H2.8124C2.03896 18 1.371 17.7188 0.808496 17.1562C0.269433 16.6172 -9.77516e-05 15.9609 -9.77516e-05 15.1875V5.625H3.3749V4.5C3.3749 3.25781 3.8085 2.20313 4.67568 1.33594C5.56631 0.445313 6.63271 0 7.8749 0C9.11709 0 10.1718 0.445313 11.039 1.33594C11.9296 2.20313 12.3749 3.25781 12.3749 4.5V5.625ZM5.6249 4.5V5.625H10.1249V4.5C10.1249 3.89063 9.90225 3.36328 9.45693 2.91797C9.01162 2.47266 8.48428 2.25 7.8749 2.25C7.26553 2.25 6.73818 2.47266 6.29287 2.91797C5.84756 3.36328 5.6249 3.89063 5.6249 4.5ZM10.6522 8.47266C10.8163 8.63672 11.0155 8.71875 11.2499 8.71875C11.4843 8.71875 11.6835 8.63672 11.8476 8.47266C12.0116 8.30859 12.0937 8.10938 12.0937 7.875C12.0937 7.64062 12.0116 7.44141 11.8476 7.27734C11.6835 7.11328 11.4843 7.03125 11.2499 7.03125C11.0155 7.03125 10.8163 7.11328 10.6522 7.27734C10.4882 7.44141 10.4062 7.64062 10.4062 7.875C10.4062 8.10938 10.4882 8.30859 10.6522 8.47266ZM3.90225 8.47266C4.06631 8.63672 4.26553 8.71875 4.4999 8.71875C4.73428 8.71875 4.9335 8.63672 5.09756 8.47266C5.26162 8.30859 5.34365 8.10938 5.34365 7.875C5.34365 7.64062 5.26162 7.44141 5.09756 7.27734C4.9335 7.11328 4.73428 7.03125 4.4999 7.03125C4.26553 7.03125 4.06631 7.11328 3.90225 7.27734C3.73818 7.44141 3.65615 7.64062 3.65615 7.875C3.65615 8.10938 3.73818 8.30859 3.90225 8.47266Z" fill="black"/>
<a href="https://www.figma.com/design/Zo6jkxWkt6KhJdxu9rbYBl?node-id=41-2">
<rect fill="black" fill-opacity="0" x="0.0999999" width="15.75" height="18"/>
</a>
</svg>
