<svg width="103" height="16" viewBox="0 0 103 16" fill="none" xmlns="http://www.w3.org/2000/svg">
<path d="M7.58789 0.527344C7.76367 0.175781 8.04688 0 8.4375 0C8.82812 0 9.11133 0.175781 9.28711 0.527344L11.1914 4.39453L15.4688 5.03906C15.8594 5.07812 16.1133 5.2832 16.2305 5.6543C16.3477 6.02539 16.2695 6.34766 15.9961 6.62109L12.8906 9.63867L13.623 13.916C13.6816 14.2871 13.5547 14.5801 13.2422 14.7949C12.9297 15.0293 12.6074 15.0586 12.2754 14.8828L8.4375 12.8906L4.59961 14.8828C4.26758 15.0781 3.94531 15.0586 3.63281 14.8242C3.32031 14.5898 3.19336 14.2871 3.25195 13.916L3.98438 9.63867L0.878906 6.62109C0.605469 6.34766 0.527344 6.02539 0.644531 5.6543C0.761719 5.2832 1.01562 5.07812 1.40625 5.03906L5.68359 4.39453L7.58789 0.527344Z" fill="#FFD40D"/>
<path d="M28.5879 0.527344C28.7637 0.175781 29.0469 0 29.4375 0C29.8281 0 30.1113 0.175781 30.2871 0.527344L32.1914 4.39453L36.4688 5.03906C36.8594 5.07812 37.1133 5.2832 37.2305 5.6543C37.3477 6.02539 37.2695 6.34766 36.9961 6.62109L33.8906 9.63867L34.623 13.916C34.6816 14.2871 34.5547 14.5801 34.2422 14.7949C33.9297 15.0293 33.6074 15.0586 33.2754 14.8828L29.4375 12.8906L25.5996 14.8828C25.2676 15.0781 24.9453 15.0586 24.6328 14.8242C24.3203 14.5898 24.1934 14.2871 24.252 13.916L24.9844 9.63867L21.8789 6.62109C21.6055 6.34766 21.5273 6.02539 21.6445 5.6543C21.7617 5.2832 22.0156 5.07812 22.4062 5.03906L26.6836 4.39453L28.5879 0.527344Z" fill="#FFD40D"/>
<path d="M50.5879 0.527344C50.7637 0.175781 51.0469 0 51.4375 0C51.8281 0 52.1113 0.175781 52.2871 0.527344L54.1914 4.39453L58.4688 5.03906C58.8594 5.07812 59.1133 5.2832 59.2305 5.6543C59.3477 6.02539 59.2695 6.34766 58.9961 6.62109L55.8906 9.63867L56.623 13.916C56.6816 14.2871 56.5547 14.5801 56.2422 14.7949C55.9297 15.0293 55.6074 15.0586 55.2754 14.8828L51.4375 12.8906L47.5996 14.8828C47.2676 15.0781 46.9453 15.0586 46.6328 14.8242C46.3203 14.5898 46.1934 14.2871 46.252 13.916L46.9844 9.63867L43.8789 6.62109C43.6055 6.34766 43.5273 6.02539 43.6445 5.6543C43.7617 5.2832 44.0156 5.07812 44.4062 5.03906L48.6836 4.39453L50.5879 0.527344Z" fill="#FFD40D"/>
<path d="M71.5879 0.527344C71.7637 0.175781 72.0469 0 72.4375 0C72.8281 0 73.1113 0.175781 73.2871 0.527344L75.1914 4.39453L79.4688 5.03906C79.8594 5.07812 80.1133 5.2832 80.2305 5.6543C80.3477 6.02539 80.2695 6.34766 79.9961 6.62109L76.8906 9.63867L77.623 13.916C77.6816 14.2871 77.5547 14.5801 77.2422 14.7949C76.9297 15.0293 76.6074 15.0586 76.2754 14.8828L72.4375 12.8906L68.5996 14.8828C68.2676 15.0781 67.9453 15.0586 67.6328 14.8242C67.3203 14.5898 67.1934 14.2871 67.252 13.916L67.9844 9.63867L64.8789 6.62109C64.6055 6.34766 64.5273 6.02539 64.6445 5.6543C64.7617 5.2832 65.0156 5.07812 65.4062 5.03906L69.6836 4.39453L71.5879 0.527344Z" fill="#FFD40D"/>
<path d="M93.5879 0.527344C93.7637 0.175781 94.0469 0 94.4375 0C94.8281 0 95.1113 0.175781 95.2871 0.527344L97.1914 4.39453L101.469 5.03906C101.859 5.07812 102.113 5.2832 102.23 5.6543C102.348 6.02539 102.27 6.34766 101.996 6.62109L98.8906 9.63867L99.623 13.916C99.6816 14.2871 99.5547 14.5801 99.2422 14.7949C98.9297 15.0293 98.6074 15.0586 98.2754 14.8828L94.4375 12.8906L90.5996 14.8828C90.2676 15.0781 89.9453 15.0586 89.6328 14.8242C89.3203 14.5898 89.1934 14.2871 89.252 13.916L89.9844 9.63867L86.8789 6.62109C86.6055 6.34766 86.5273 6.02539 86.6445 5.6543C86.7617 5.2832 87.0156 5.07812 87.4062 5.03906L91.6836 4.39453L93.5879 0.527344Z" fill="#FFD40D"/>
</svg>
