<?xml version="1.0" encoding="utf-8"?>
<!DOCTYPE svg PUBLIC "-//W3C//DTD SVG 1.0//EN" "http://www.w3.org/TR/2001/REC-SVG-20010904/DTD/svg10.dtd">
<svg version="1.0" xmlns="http://www.w3.org/2000/svg" width="16px" height="16px" viewBox="0 0 16 16" preserveAspectRatio="xMidYMid meet">
 <g fill="#ffffff">
  <path d="M0 8 l0 -8 8 0 8 0 0 8 0 8 -8 0 -8 0 0 -8z"/>
 </g>
 <g fill="#f7f7f7">
  <path d="M2 14 c-2 -2 -2.6 -4 -1.2 -4 0.4 0 1.5 0.9 2.5 2 1 1.2 2.9 2 4.7 2 1.8 0 3.7 -0.8 4.7 -2 1.9 -2.2 3.3 -2.6 3.3 -1 0 2.4 -4.1 5 -8 5 -2.7 0 -4.7 -0.7 -6 -2z"/>
  <path d="M5 8 c0 -4.1 0.8 -4.7 4.1 -3 3.5 1.9 1.4 7 -3 7 -0.6 0 -1.1 -1.8 -1.1 -4z"/>
  <path d="M0 5 c0 -2.4 4.1 -5 8 -5 3.9 0 8 2.6 8 5 0 1.6 -1.4 1.2 -3.3 -1 -1 -1.2 -2.9 -2 -4.7 -2 -1.8 0 -3.7 0.8 -4.7 2 -1.9 2.2 -3.3 2.6 -3.3 1z"/>
 </g>
 <g fill="#efefef">
  <path d="M2.2 13.7 c-5 -5.3 -1.3 -13.7 5.9 -13.7 4.7 0 7.9 3.4 7.9 8.1 0 7.1 -9 10.7 -13.8 5.6z m11.4 -3.3 c1.5 -6 -3 -10.5 -8.1 -8.2 -4.5 2 -4.6 9.5 -0.3 11.5 3.2 1.4 7.7 -0.3 8.4 -3.3z"/>
  <path d="M5 8 c0 -2.2 0.5 -4 1 -4 1.8 0 7 3 7 4 0 1 -5.2 4 -7 4 -0.5 0 -1 -1.8 -1 -4z m3.5 0 c0 -0.7 -0.6 -1.5 -1.2 -1.7 -0.8 -0.3 -1.3 0.4 -1.3 1.7 0 1.3 0.5 2 1.3 1.8 0.6 -0.3 1.2 -1.1 1.2 -1.8z"/>
 </g>
 <g fill="#e6e6e6">
  <path d="M6 8 c0 -2.2 0.3 -4 0.6 -4 1 0 6.4 3.4 6.4 4 0 0.6 -5.4 4 -6.4 4 -0.3 0 -0.6 -1.8 -0.6 -4z m2.2 -1.2 c-0.9 -0.9 -1.2 -0.7 -1.2 1.2 0 1.9 0.3 2.1 1.2 1.2 0.9 -0.9 0.9 -1.5 0 -2.4z"/>
 </g>
 <g fill="#dedede">
 </g>
 <g fill="#d6d6d6">
  <path d="M2.2 13.7 c-5 -5.3 -1.3 -13.7 5.9 -13.7 7.1 0 10.7 9 5.6 13.8 -2.4 2.3 -4.7 2.9 -4.7 1.3 0 -0.5 0.9 -1.1 2 -1.4 4.8 -1.2 4.4 -9.8 -0.5 -11.7 -5.5 -2.1 -10.6 3 -8.5 8.6 0.6 1.4 1.9 2.8 3 3.1 1.1 0.3 2 0.9 2 1.4 0 1.7 -2.7 0.9 -4.8 -1.4z"/>
  <path d="M6 8 c0 -2.2 0.3 -4 0.6 -4 1 0 6.4 3.4 6.4 4 0 0.6 -5.4 4 -6.4 4 -0.3 0 -0.6 -1.8 -0.6 -4z m4 0 c0 -0.4 -0.7 -1 -1.5 -1.4 -1 -0.4 -1.5 0.1 -1.5 1.4 0 1.3 0.5 1.8 1.5 1.4 0.8 -0.4 1.5 -1 1.5 -1.4z"/>
 </g>
 <g fill="#cecece">
  <path d="M2.5 13.5 c-1.5 -1.6 -2.5 -3.7 -2.5 -5.5 0 -3.8 4.2 -8 8 -8 1.8 0 3.9 1 5.5 2.5 3.3 3.4 3.3 7.6 0 11 -3.4 3.3 -7.6 3.3 -11 0z m8 0.5 c5.2 -2 5.2 -10 0 -12 -5.5 -2.1 -10.6 3 -8.5 8.5 0.8 2.1 2.4 3.3 5.7 4.4 0.1 0.1 1.3 -0.3 2.8 -0.9z"/>
 </g>
 <g fill="#c5c5c5">
 </g>
 <g fill="#bdbdbd">
 </g>
 <g fill="#b5b5b5">
  <path d="M5 8 c0 -2.6 0.5 -4 1.3 -4 1.8 0.1 4.7 2.5 4.7 4 0 1.5 -2.9 3.9 -4.7 4 -0.8 0 -1.3 -1.4 -1.3 -4z m5 0 c0 -0.4 -0.7 -1 -1.5 -1.4 -1 -0.4 -1.5 0.1 -1.5 1.4 0 1.3 0.5 1.8 1.5 1.4 0.8 -0.4 1.5 -1 1.5 -1.4z"/>
 </g>
 <g fill="#adadad">
  <path d="M5 8 c0 -4.4 0.6 -4.8 3.6 -2.4 1.6 1.3 1.6 1.5 0.2 1 -1.3 -0.4 -1.8 0 -1.8 1.4 0 1.4 0.5 1.8 1.8 1.4 1.4 -0.5 1.4 -0.3 -0.2 1 -3 2.4 -3.6 2 -3.6 -2.4z"/>
 </g>
 <g fill="#a5a5a5">
 </g>
 <g fill="#9c9c9c">
 </g>
 <g fill="#949494">
 </g>
 <g fill="#8c8c8c">
  <path d="M2.5 13.9 c-1.1 -1.7 -0.2 -1.8 1.9 -0.3 1.7 1.2 1.7 1.4 0.4 1.4 -0.9 0 -2 -0.5 -2.3 -1.1z"/>
  <path d="M5 8 c0 -2.2 0.2 -4 0.5 -4 1.4 0 6.5 3.2 6.5 4 0 0.8 -5.1 4 -6.5 4 -0.3 0 -0.5 -1.8 -0.5 -4z m4 1 c1.3 -0.9 1.3 -1.1 0 -2 -2.2 -1.5 -3 -1.2 -3 1 0 2.2 0.8 2.5 3 1z"/>
  <path d="M2 3 c0 -0.6 0.7 -1.3 1.5 -1.7 2.4 -0.9 2.7 0.1 0.5 1.5 -1.3 0.8 -2 0.8 -2 0.2z"/>
 </g>
 <g fill="#848484">
  <path d="M2.5 13.5 c-5 -4.9 -1.5 -13.5 5.5 -13.5 4.1 0 8 3.9 8 8 0 4.1 -3.9 8 -8 8 -1.9 0 -4 -0.9 -5.5 -2.5z m10 -1 c1.4 -1.3 2.5 -3.3 2.5 -4.5 0 -2.7 -4.3 -7 -7 -7 -1.2 0 -3.2 1.1 -4.5 2.5 -1.4 1.3 -2.5 3.4 -2.5 4.5 0 2.7 4.3 7 7 7 1.2 0 3.2 -1.1 4.5 -2.5z"/>
 </g>
 <g fill="#7b7b7b">
 </g>
 <g fill="#737373">
  <path d="M2.5 13.5 c-5 -4.9 -1.5 -13.5 5.5 -13.5 4.1 0 8 3.9 8 8 0 4.1 -3.9 8 -8 8 -1.9 0 -4 -0.9 -5.5 -2.5z m10.2 -0.7 c2.9 -2.7 2.9 -6.5 0.1 -9.5 -2.7 -2.9 -6.5 -2.9 -9.5 -0.1 -2.9 2.7 -2.9 6.5 -0.1 9.5 2.7 2.9 6.5 2.9 9.5 0.1z"/>
  <path d="M8.6 9.5 c1.9 -1.5 1.9 -1.5 0 -3 -1.1 -0.8 -1.5 -1.5 -1 -1.5 0.6 0 1.9 0.7 3 1.5 1.9 1.5 1.9 1.5 0 3 -1.1 0.8 -2.4 1.5 -3 1.5 -0.5 0 -0.1 -0.7 1 -1.5z"/>
 </g>
 <g fill="#6b6b6b">
  <path d="M2 13.5 c-2 -2.4 -0.6 -2.8 1.5 -0.5 1 1.1 1.3 2 0.8 2 -0.6 0 -1.6 -0.7 -2.3 -1.5z"/>
  <path d="M5.6 11.3 c-0.8 -0.8 -0.8 -5.8 0 -6.6 0.7 -0.7 6.4 2.3 6.4 3.3 0 1 -5.7 4 -6.4 3.3z m3.9 -3.3 c0 -0.8 -0.8 -1.6 -1.7 -1.8 -1.3 -0.2 -1.8 0.3 -1.8 1.8 0 1.5 0.5 2 1.8 1.8 0.9 -0.2 1.7 -1 1.7 -1.8z"/>
  <path d="M1 4.3 c0 -1.3 2.9 -3.8 3.5 -3.1 0.3 0.3 -0.4 1.3 -1.5 2.3 -1.1 1 -2 1.3 -2 0.8z"/>
  <path d="M12.5 3 c-1 -1.1 -1.3 -2 -0.8 -2 1.3 0 3.8 2.9 3.1 3.5 -0.3 0.3 -1.3 -0.4 -2.3 -1.5z"/>
 </g>
 <g fill="#636363">
 </g>
 <g fill="#5a5a5a">
  <path d="M5.6 11.3 c-0.9 -0.9 -0.7 -6.1 0.2 -6.7 0.4 -0.2 1.4 0 2.2 0.6 1.2 0.8 1.2 0.9 -0.2 0.4 -1.4 -0.4 -1.8 0.1 -1.8 2.4 0 2.2 0.4 2.8 1.5 2.4 0.8 -0.4 1.5 -0.4 1.5 -0.1 0 0.8 -2.8 1.6 -3.4 1z"/>
 </g>
 <g fill="#525252">
 </g>
 <g fill="#4a4a4a">
 </g>
 <g fill="#424242">
 </g>
 <g fill="#3a3a3a">
 </g>
 <g fill="#313131">
 </g>
 <g fill="#292929">
 </g>
 <g fill="#212121">
 </g>
 <g fill="#191919">
 </g>
 <g fill="#101010">
 </g>
 <g fill="#080808">
 </g>
 <g fill="#000000">
 </g>
</svg>