<svg width="71" height="70" viewBox="0 0 71 70" fill="none" xmlns="http://www.w3.org/2000/svg">
<path d="M54.045 25.1763C53.9505 25.602 53.6263 25.9395 53.205 26.0517C52.421 26.261 51.6589 26.5462 50.9299 26.903C50.3483 27.1791 49.7902 27.5032 49.2615 27.8717C49.0398 28.0229 48.8182 28.1745 48.6083 28.338C48.2585 28.6066 47.9082 28.8982 47.5701 29.1898L46.6483 30.1116C46.6483 30.1233 46.6366 30.1345 46.6248 30.1463C46.4267 30.3679 46.2168 30.5896 46.0181 30.8229C46.0181 30.8347 46.0064 30.8464 45.9834 30.8582C45.3938 31.5818 44.8555 32.3455 44.3732 33.145C44.2686 33.2967 44.1869 33.4484 44.0934 33.6112C43.8018 34.125 43.5332 34.65 43.2651 35.2097C43.2181 35.3266 43.1716 35.4313 43.1134 35.5483C42.8448 36.155 42.6002 36.7964 42.3785 37.4501C42.2733 37.7764 42.1681 38.0915 42.0752 38.4183C41.8883 39.0715 41.7131 39.7481 41.5732 40.4483C41.515 40.7633 41.445 41.0779 41.3985 41.4048C41.3515 41.7316 41.2933 42.0349 41.2581 42.35C41.2116 42.6181 41.1769 42.8862 41.1534 43.1549C41.1182 43.5047 41.0835 43.8662 41.06 44.2283C41.0252 44.6481 41.0017 45.0684 40.99 45.4999H66.6216C66.4934 35.5248 64.6498 28.6883 61.3136 25.4679L64.0784 17.1847C64.2957 16.6197 64.8645 16.2709 65.4669 16.3329C67.8515 16.3307 69.851 14.531 70.1031 12.1592C70.3546 9.78747 68.7781 7.60798 66.4469 7.1049C65.8087 6.96498 65.1481 6.96498 64.5099 7.1049C64.0981 7.19462 63.6741 7.01731 63.4482 6.66163C62.3592 5.09097 60.4227 4.34329 58.561 4.77427C56.6993 5.20472 55.2883 6.72732 54.9999 8.61682C54.7121 10.5058 55.6045 12.3798 57.2531 13.3464C57.7396 13.6508 57.949 14.2527 57.7551 14.7932L54.8734 23.3915C54.3121 23.446 53.755 23.5352 53.205 23.6596C53.3566 23.7883 53.5083 23.9048 53.66 24.0329C53.9884 24.3149 54.1364 24.7534 54.045 25.1763ZM59.9603 15.5281C60.4975 13.9488 59.8673 12.2084 58.4435 11.34C57.6184 10.8577 57.1709 9.92205 57.3129 8.9773C57.4555 8.03256 58.1594 7.26992 59.0897 7.0531C60.0201 6.83573 60.9888 7.20744 61.5352 7.99143C62.293 9.1247 63.6693 9.67639 65.0002 9.37998C65.3201 9.32124 65.648 9.32124 65.9684 9.37998C66.8854 9.5888 67.5909 10.3221 67.765 11.2465C67.891 11.9338 67.702 12.642 67.2501 13.1755C66.7978 13.7085 66.1308 14.0113 65.4317 13.9996C63.838 13.9617 62.3993 14.9491 61.8615 16.4498L59.3301 24.0447L59.0849 23.94C58.8857 23.8449 58.679 23.767 58.4665 23.7066C58.3848 23.6831 58.3031 23.6479 58.2101 23.6249C58.1167 23.6014 58.0467 23.5779 57.9533 23.5549C57.9041 23.5379 57.8534 23.5261 57.8016 23.5197C57.6499 23.485 57.4865 23.4497 57.3231 23.4262L59.9603 15.5281Z" fill="#F3274C"/>
<path d="M12.3249 62.2066C14.4585 62.8555 16.4585 63.883 18.2284 65.24C21.1449 67.4099 26.4417 70.0001 35.1334 70.0001C43.8247 70.0001 49.1215 67.4099 52.0385 65.24C53.8084 63.883 55.8079 62.8555 57.9414 62.2066C61.9084 61.0402 68.7801 57.8433 70.0864 49.5601C70.2467 48.5459 69.9556 47.513 69.2891 46.7323C68.6226 45.9515 67.6479 45.5013 66.6215 45.5002C66.6332 45.8852 66.6332 46.2703 66.6332 46.6666C66.6332 47.3112 66.1109 47.8335 65.4668 47.8335H21.1331C21.1331 48.8637 20.457 49.7721 19.4701 50.068C18.4826 50.3638 17.4188 49.9772 16.8516 49.1168C16.7987 49.0389 16.7357 48.9684 16.6647 48.9069C16.2283 48.4866 15.5378 48.4866 15.1015 48.9069C15.0304 48.9684 14.968 49.0389 14.9151 49.1168C14.4323 49.8522 13.5762 50.2522 12.7025 50.1513C11.8288 50.0498 11.0864 49.4645 10.7847 48.6383C10.6469 48.2559 10.3195 47.9734 9.92165 47.8917C9.52431 47.8201 9.11736 47.9515 8.83644 48.2415C8.40172 48.7243 7.78275 48.9999 7.13333 48.9999C6.01075 48.9892 5.05532 48.1812 4.85825 47.0762C4.66118 45.9718 5.27909 44.8828 6.32851 44.4849C6.71036 44.3472 6.99341 44.0198 7.07512 43.6219C7.15203 43.224 7.02011 42.8144 6.72478 42.5367C6.24199 42.102 5.96642 41.483 5.96642 40.8336C5.97069 39.5465 7.01264 38.504 8.29972 38.5003C8.57155 38.5014 8.84018 38.5532 9.09333 38.652C9.46289 38.7887 9.87625 38.7273 10.1897 38.4885C10.5048 38.2434 10.6789 37.86 10.6565 37.4615C10.6432 37.4204 10.6351 37.3772 10.633 37.3334C10.6373 36.0463 11.6798 35.0038 12.9668 35.0001C13.7775 35.0017 14.5274 35.4321 14.9381 36.1317C14.8334 36.4933 14.7517 36.8549 14.67 37.217C14.5882 37.5785 14.5183 37.9283 14.4601 38.2787C14.451 38.2877 14.4467 38.3006 14.4483 38.3134C14.3901 38.6632 14.3431 39.0135 14.2966 39.3633C14.2614 39.6202 14.2384 39.8766 14.2149 40.1334C14.1914 40.3668 14.1797 40.5885 14.1685 40.8101C14.145 41.2069 14.1332 41.6032 14.1332 42C14.1332 42.6446 14.6555 43.1669 15.3001 43.1669C16.2914 43.1722 17.1709 43.804 17.493 44.7418C17.6222 45.1413 17.9651 45.4345 18.3801 45.5002C18.4757 45.5199 18.5739 45.528 18.6716 45.5231C18.6914 45.5231 18.7112 45.5194 18.7299 45.5119C18.7614 45.5141 18.7934 45.5103 18.8233 45.5002H38.6566C38.6684 45.1851 38.6801 44.87 38.7031 44.5667C38.7015 44.5079 38.7052 44.4497 38.7148 44.3915C38.7266 44.0807 38.7501 43.7656 38.7848 43.4467C38.8083 43.1087 38.843 42.7818 38.89 42.455C38.9365 42.1281 38.9717 41.8136 39.0182 41.4867C40.2898 33.2153 44.5601 27.6968 49.3549 25.0949C49.7282 24.8968 50.1015 24.7099 50.4748 24.547C51.3517 24.1571 52.2665 23.8602 53.2049 23.6599C49.0606 20.3803 43.9182 18.6184 38.6331 18.667C28.7167 18.6622 19.7456 24.5486 15.8016 33.6468C14.9947 33.0086 13.9954 32.663 12.9668 32.6668C10.8397 32.6684 8.98331 34.1077 8.45139 36.167C6.78139 36.112 5.20912 36.9547 4.33007 38.3759C3.45047 39.797 3.39867 41.5797 4.19335 43.0499C3.37731 43.7218 2.80747 44.6452 2.57141 45.6748C1.94657 45.8778 1.38954 46.2495 0.961764 46.7483C0.305942 47.528 0.0207549 48.5539 0.179904 49.5601C1.48674 57.8433 8.35846 61.0402 12.3249 62.2066ZM35.3316 23.4618C35.6841 22.9256 36.4034 22.7744 36.9418 23.1232C38.6977 24.3024 40.3245 25.6631 41.7947 27.1836C42.0142 27.4015 42.1371 27.699 42.1349 28.0082C42.1323 28.318 42.0057 28.6133 41.783 28.8285C41.5662 29.0437 41.2724 29.1655 40.9664 29.1666C40.654 29.1687 40.3544 29.0421 40.1381 28.8168C38.7752 27.4202 37.2745 26.1657 35.6584 25.0719C35.3994 24.9032 35.2194 24.6378 35.158 24.3349C35.0966 24.0327 35.1591 23.7176 35.3316 23.4618ZM28.2617 27.4752C28.4 27.1986 28.6425 26.9892 28.9362 26.8925C29.23 26.7964 29.5499 26.821 29.8249 26.962C32.7446 28.4499 35.2894 30.5797 37.2681 33.1918C37.44 33.4481 37.5025 33.7627 37.4411 34.0649C37.3797 34.3672 37.1997 34.6326 36.9418 34.8019C36.7538 34.9333 36.5295 35.0027 36.2998 35.0001C35.9094 34.9979 35.5463 34.8009 35.3316 34.4751C33.566 32.2091 31.3288 30.3538 28.775 29.0384C28.4983 28.9001 28.289 28.6571 28.1923 28.3639C28.0962 28.0701 28.1207 27.7502 28.2617 27.4752ZM21.1801 33.5416C21.3355 32.9237 21.9614 32.5482 22.5799 32.7015C22.7898 32.7485 27.7485 34.0665 32.6015 41.3586C32.7734 41.6149 32.8359 41.9289 32.7745 42.2318C32.7131 42.534 32.5331 42.7995 32.2752 42.9682C32.0872 43.1001 31.8629 43.1696 31.6332 43.1669C31.2428 43.1648 30.8797 42.9677 30.665 42.6419C26.3482 36.1782 22.0549 34.9766 22.0084 34.9648C21.3873 34.7998 21.0167 34.1632 21.1801 33.5416Z" fill="#F3274C"/>
<path d="M33.9666 8.16681C33.9666 8.81088 34.4889 9.33319 35.1335 9.33319C35.7775 9.33319 36.2999 8.81088 36.2999 8.16681C36.2999 8.07816 36.2999 8.06641 36.5412 7.82501C37.1282 7.32941 37.4662 6.60042 37.4662 5.83298C37.4662 5.065 37.1282 4.33601 36.5412 3.84041C36.2999 3.59795 36.2999 3.5862 36.2999 3.50021C36.2999 3.4137 36.2999 3.40088 36.5412 3.16055C37.1244 2.66121 37.462 1.93382 37.4668 1.16692C37.4668 0.522308 36.9445 0 36.2999 0C35.6558 0 35.1335 0.522308 35.1335 1.16692C35.1335 1.25397 35.1335 1.26572 34.8915 1.50711C34.3089 2.00592 33.9714 2.73277 33.9666 3.50021C33.9719 4.26659 34.3094 4.99397 34.8915 5.49278C35.1335 5.73204 35.1335 5.74326 35.1335 5.83351C35.1335 5.92323 35.1335 5.93391 34.8915 6.17531C34.31 6.67358 33.9724 7.40044 33.9666 8.16681Z" fill="#F3274C"/>
<path d="M26.9668 13.9998C26.9668 14.6444 27.4891 15.1667 28.1332 15.1667C28.7778 15.1667 29.3001 14.6444 29.3001 13.9998C29.3001 13.9111 29.3001 13.8999 29.5415 13.658C30.1284 13.1624 30.4665 12.4334 30.4665 11.6654C30.4665 10.8974 30.1284 10.1684 29.5415 9.67284C29.3001 9.43251 29.3001 9.42076 29.3001 9.33318C29.3001 9.24559 29.3001 9.23438 29.5415 8.99405C30.1241 8.49471 30.4617 7.76732 30.467 6.99988C30.467 6.3558 29.9442 5.8335 29.3001 5.8335C28.6555 5.8335 28.1332 6.3558 28.1332 6.99988C28.1332 7.08746 28.1332 7.09921 27.8918 7.33954C27.3054 7.83514 26.9668 8.5636 26.9668 9.33157C26.9668 10.0995 27.3054 10.828 27.8918 11.3236C28.1332 11.5661 28.1332 11.5778 28.1332 11.6665C28.1332 11.7551 28.1332 11.7669 27.8918 12.0083C27.3097 12.5071 26.9727 13.2334 26.9668 13.9998Z" fill="#F3274C"/>
<path d="M40.9666 13.9998C40.9666 14.6444 41.4889 15.1667 42.1335 15.1667C42.7775 15.1667 43.2999 14.6444 43.2999 13.9998C43.2999 13.9111 43.2999 13.8999 43.5418 13.658C44.1282 13.1624 44.4668 12.4334 44.4668 11.6654C44.4668 10.8974 44.1282 10.1684 43.5418 9.67284C43.2999 9.43251 43.2999 9.42076 43.2999 9.33318C43.2999 9.24559 43.2999 9.23438 43.5418 8.99405C44.1244 8.49471 44.462 7.76732 44.4668 6.99988C44.4668 6.3558 43.9445 5.8335 43.2999 5.8335C42.6558 5.8335 42.1335 6.3558 42.1335 6.99988C42.1335 7.08746 42.1335 7.09921 41.8921 7.33954C41.3051 7.83514 40.9671 8.5636 40.9671 9.33157C40.9671 10.0995 41.3051 10.828 41.8921 11.3236C42.1335 11.5661 42.1335 11.5778 42.1335 11.6665C42.1335 11.7551 42.1335 11.7669 41.8921 12.0083C41.31 12.5071 40.9724 13.2334 40.9666 13.9998Z" fill="#F3274C"/>
</svg>
