<svg width="70" height="70" viewBox="0 0 70 70" fill="none" xmlns="http://www.w3.org/2000/svg">
<path d="M62.4654 40.4688C58.1766 40.4688 55.9344 38.243 54.1324 36.4547C52.4822 34.8168 51.2887 33.6328 48.691 33.6328C47.8885 33.6328 47.2199 33.7449 46.6293 33.95C47.2526 40.8026 41.8221 46.7578 34.918 46.7578C28.0113 46.7578 22.5837 40.7997 23.2066 33.9514C22.616 33.7463 21.9475 33.6328 21.1436 33.6328C18.5459 33.6328 17.3523 34.8168 15.7021 36.4561C13.9002 38.243 11.6594 40.4688 7.37051 40.4688C4.30117 40.4688 2.12803 39.3757 0 37.3871C1.22486 55.6337 16.405 70 34.918 70C53.4177 70 68.613 55.6412 69.8359 37.3885C67.7111 39.3697 65.5357 40.4688 62.4654 40.4688ZM53.6758 43.3398C54.5836 42.6645 55.8687 42.8518 56.5455 43.7609L58.0508 45.783C58.7275 46.6908 58.5389 47.976 57.6311 48.6527C56.7269 49.325 55.441 49.1471 54.7613 48.2316L53.2547 46.2096C52.5793 45.3018 52.7666 44.0166 53.6758 43.3398ZM40.7244 54.2076L43.0281 53.2902C44.0809 52.8719 45.273 53.3846 45.6928 54.4373C46.1111 55.49 45.5971 56.6822 44.5457 57.1006C42.3212 57.9428 42.1314 58.1643 41.4832 58.1643C39.2328 58.1643 38.6332 55.0387 40.7244 54.2076ZM22.5326 50.3289C23.6387 50.0828 24.7338 50.7801 24.9785 51.8861L25.5254 54.3471C25.7715 55.4531 25.0742 56.5482 23.9695 56.7943C22.8412 57.0407 21.7637 56.3262 21.5223 55.2371L20.9754 52.7762C20.7293 51.6701 21.4266 50.575 22.5326 50.3289ZM12.6342 44.0945L14.9584 43.1156C16.0016 42.6768 17.2047 43.1662 17.6436 44.2107C18.0838 45.2539 17.593 46.457 16.5498 46.8959C14.3285 47.7825 14.121 48.0348 13.4312 48.0348C11.2029 48.0348 10.5797 44.9589 12.6342 44.0945Z" fill="#F3274C"/>
<path d="M7.37041 36.3672C9.96807 36.3672 11.1616 35.1832 12.8118 33.5439C14.6138 31.757 16.8546 29.5312 21.1435 29.5312C22.337 29.5312 23.372 29.7035 24.2825 29.9906C28.5177 21.0319 41.2921 20.9768 45.5532 29.9906C46.4638 29.7035 47.4987 29.5312 48.6909 29.5312C52.9784 29.5312 55.2206 31.7557 57.0226 33.5439C58.6728 35.1832 59.8663 36.3672 62.4653 36.3672C66.062 36.3672 67.0956 33.985 69.7757 31.8186C68.1848 14.0301 53.2408 0 34.9179 0C16.6296 0 1.65064 14.0019 0.0600586 31.8213C2.74016 33.9801 3.76514 36.3672 7.37041 36.3672ZM16.2585 26.168C15.6323 26.168 15.0144 25.8822 14.611 25.3408L13.1058 23.3187C12.4304 22.4109 12.6177 21.1258 13.5269 20.449C14.4347 19.7736 15.7198 19.9609 16.3966 20.8701L17.9019 22.8922C18.9158 24.255 17.92 26.168 16.2585 26.168ZM30.4321 14.8941C28.2374 15.7251 28.0203 15.9578 27.371 15.9578C26.5548 15.9578 25.7851 15.4684 25.4651 14.6645C25.0454 13.6117 25.5595 12.4195 26.6122 12.0012L28.9159 11.0838C29.9687 10.6654 31.1608 11.1781 31.5792 12.2309C31.9989 13.2822 31.4849 14.4758 30.4321 14.8941ZM46.3462 18.9547C46.1958 18.9889 46.0468 19.0039 45.8991 19.0039C44.9585 19.0039 44.1122 18.3545 43.8989 17.3975L43.352 14.9365C43.106 13.8318 43.8032 12.7354 44.9093 12.4906C46.0153 12.2445 47.1104 12.9418 47.3565 14.0479L47.9034 16.5088C48.1481 17.6135 47.4509 18.71 46.3462 18.9547ZM59.9552 24.6121C59.8663 25.6826 58.9694 26.492 57.914 26.492C57.8565 26.492 57.7991 26.4893 57.7403 26.4852L55.2288 26.2746C54.0995 26.1803 53.2614 25.1877 53.3571 24.0598C53.4515 22.9305 54.4427 22.0924 55.572 22.1867L58.0835 22.3973C59.2128 22.4916 60.0509 23.4842 59.9552 24.6121Z" fill="#F3274C"/>
</svg>
