<svg width="70" height="70" viewBox="0 0 70 70" fill="none" xmlns="http://www.w3.org/2000/svg">
<path d="M8.90632 66.963H18.4378C18.5703 67.7934 19.2585 68.4428 20.1276 68.4428H41.7981C42.6705 68.4428 43.3554 67.7966 43.4879 66.963H53.0194C54.6317 66.963 55.937 65.6577 55.937 64.0454H5.99194C5.99194 65.6577 7.29727 66.963 8.90632 66.963Z" fill="#F3274C"/>
<path d="M67.4169 36.9757C64.9872 35.008 61.5655 34.9757 59.3135 35.2245C59.3781 33.6542 59.4137 32.0484 59.4137 30.3779H0.00170898C0.00170898 46.4361 2.43144 58.0225 17.8078 62.3456H41.6075C47.698 60.6364 51.7368 57.764 54.4153 53.945C60.2505 53.8319 69.6366 51.5346 69.9888 43.4765C70.1406 39.9482 68.6738 37.9902 67.4169 36.9757ZM56.8612 49.3375C57.9791 46.4652 58.6414 43.2341 59.0065 39.6833C60.5833 39.4248 63.3006 39.26 64.6738 40.3779C64.9258 40.5847 65.7109 41.2245 65.6204 43.2891C65.4363 47.4636 60.2537 48.8658 56.8612 49.3375Z" fill="#F3274C"/>
<path d="M24.2051 28.1229C24.2051 28.1229 35.5137 27.2925 30.3312 17.7578C26.1696 10.1035 27.1195 5.61236 32.4442 1.5542C32.4442 1.5542 15.0032 5.99685 25.1744 19.7448C28.9063 25.7351 24.2051 28.1229 24.2051 28.1229Z" fill="#F3274C"/>
<path d="M31.8271 27.3605C31.8271 27.3605 40.8869 25.4509 35.9564 18.165C34.1664 15.0051 36.6349 13.8774 36.6349 13.8774C36.6349 13.8774 30.8029 14.0616 33.265 19.0729C35.2359 23.102 34.6511 25.3896 31.8271 27.3605Z" fill="#F3274C"/>
</svg>
