<svg width="70" height="70" viewBox="0 0 70 70" fill="none" xmlns="http://www.w3.org/2000/svg">
<path d="M8.90608 66.9625H18.4376C18.5701 67.7929 19.2583 68.4423 20.1274 68.4423H41.7978C42.6702 68.4423 43.3552 67.7961 43.4877 66.9625H53.0192C54.6314 66.9625 55.9368 65.6572 55.9368 64.0449H5.9917C5.9917 65.6572 7.29703 66.9625 8.90608 66.9625Z" fill="white"/>
<path d="M67.4166 36.9757C64.9869 35.008 61.5653 34.9757 59.3133 35.2245C59.3779 33.6542 59.4134 32.0484 59.4134 30.3779H0.00146484C0.00146484 46.4361 2.43119 58.0225 17.8076 62.3456H41.6073C47.6977 60.6364 51.7365 57.764 54.415 53.945C60.2502 53.8319 69.6364 51.5346 69.9885 43.4765C70.1404 39.9482 68.6735 37.9902 67.4166 36.9757ZM56.8609 49.3375C57.9788 46.4652 58.6412 43.2341 59.0063 39.6833C60.583 39.4248 63.3003 39.26 64.6735 40.3779C64.9255 40.5847 65.7107 41.2245 65.6202 43.2891C65.436 47.4635 60.2535 48.8658 56.8609 49.3375Z" fill="white"/>
<path d="M24.2051 28.1224C24.2051 28.1224 35.5137 27.292 30.3312 17.7573C26.1696 10.103 27.1195 5.61187 32.4442 1.55371C32.4442 1.55371 15.0032 5.99636 25.1744 19.7443C28.9063 25.7346 24.2051 28.1224 24.2051 28.1224Z" fill="white"/>
<path d="M31.8271 27.36C31.8271 27.36 40.8869 25.4505 35.9564 18.1645C34.1664 15.0046 36.6349 13.877 36.6349 13.877C36.6349 13.877 30.8029 14.0611 33.265 19.0724C35.2359 23.1015 34.6511 25.3891 31.8271 27.36Z" fill="white"/>
</svg>
