<svg width="71" height="70" viewBox="0 0 71 70" fill="none" xmlns="http://www.w3.org/2000/svg">
<path d="M54.0453 25.1768C53.9507 25.6025 53.6266 25.94 53.2052 26.0521C52.4212 26.2615 51.6591 26.5467 50.9301 26.9034C50.3485 27.1795 49.7904 27.5037 49.2617 27.8722C49.0401 28.0234 48.8185 28.175 48.6086 28.3385C48.2588 28.6071 47.9084 28.8987 47.5704 29.1903L46.6486 30.1121C46.6486 30.1238 46.6368 30.135 46.6251 30.1468C46.4269 30.3684 46.2171 30.59 46.0184 30.8234C46.0184 30.8352 46.0066 30.8469 45.9837 30.8587C45.3941 31.5823 44.8557 32.346 44.3735 33.1455C44.2688 33.2972 44.1871 33.4488 44.0936 33.6117C43.802 34.1255 43.5334 34.6505 43.2653 35.2102C43.2183 35.3271 43.1719 35.4318 43.1136 35.5488C42.845 36.1555 42.6004 36.7969 42.3788 37.4505C42.2736 37.7769 42.1684 38.0919 42.0754 38.4188C41.8885 39.0719 41.7133 39.7486 41.5734 40.4487C41.5152 40.7638 41.4453 41.0784 41.3988 41.4052C41.3518 41.7321 41.2936 42.0354 41.2583 42.3505C41.2119 42.6186 41.1772 42.8867 41.1537 43.1553C41.1184 43.5052 41.0837 43.8667 41.0602 44.2288C41.0255 44.6486 41.002 45.0689 40.9902 45.5004H66.6218C66.4936 35.5253 64.6501 28.6888 61.3138 25.4684L64.0786 17.1852C64.296 16.6202 64.8647 16.2714 65.4672 16.3334C67.8517 16.3312 69.8512 14.5315 70.1033 12.1597C70.3549 9.78796 68.7783 7.60847 66.4472 7.10539C65.809 6.96546 65.1483 6.96546 64.5101 7.10539C64.0984 7.19511 63.6743 7.0178 63.4484 6.66212C62.3595 5.09146 60.423 4.34377 58.5613 4.77476C56.6995 5.20521 55.2886 6.72781 55.0002 8.6173C54.7123 10.5063 55.6047 12.3803 57.2534 13.3469C57.7399 13.6513 57.9492 14.2532 57.7554 14.7937L54.8736 23.392C54.3123 23.4465 53.7553 23.5357 53.2052 23.6601C53.3569 23.7888 53.5085 23.9052 53.6602 24.0334C53.9887 24.3154 54.1366 24.7539 54.0453 25.1768ZM59.9605 15.5285C60.4978 13.9493 59.8676 12.2088 58.4438 11.3405C57.6187 10.8582 57.1711 9.92254 57.3132 8.97779C57.4558 8.03305 58.1597 7.27041 59.09 7.05358C60.0203 6.83622 60.9891 7.20793 61.5354 7.99192C62.2933 9.12519 63.6695 9.67687 65.0004 9.38047C65.3203 9.32173 65.6482 9.32173 65.9686 9.38047C66.8856 9.58929 67.5911 10.3225 67.7652 11.247C67.8913 11.9343 67.7022 12.6425 67.2504 13.176C66.798 13.709 66.131 14.0118 65.4319 14.0001C63.8383 13.9622 62.3995 14.9496 61.8617 16.4503L59.3303 24.0452L59.0852 23.9405C58.886 23.8454 58.6793 23.7675 58.4667 23.7071C58.385 23.6836 58.3033 23.6484 58.2104 23.6254C58.1169 23.6019 58.047 23.5784 57.9535 23.5554C57.9044 23.5383 57.8536 23.5266 57.8018 23.5202C57.6502 23.4855 57.4867 23.4502 57.3233 23.4267L59.9605 15.5285Z" fill="white"/>
<path d="M12.3249 62.2066C14.4585 62.8555 16.4585 63.883 18.2284 65.24C21.1449 67.4099 26.4417 70.0001 35.1334 70.0001C43.8247 70.0001 49.1215 67.4099 52.0385 65.24C53.8084 63.883 55.8079 62.8555 57.9414 62.2066C61.9084 61.0402 68.7801 57.8433 70.0864 49.5601C70.2467 48.5459 69.9556 47.513 69.2891 46.7323C68.6226 45.9515 67.6479 45.5013 66.6215 45.5002C66.6332 45.8852 66.6332 46.2703 66.6332 46.6666C66.6332 47.3112 66.1109 47.8335 65.4668 47.8335H21.1331C21.1331 48.8637 20.457 49.7721 19.4701 50.068C18.4826 50.3638 17.4188 49.9772 16.8516 49.1168C16.7987 49.0389 16.7357 48.9684 16.6647 48.9069C16.2283 48.4866 15.5378 48.4866 15.1015 48.9069C15.0304 48.9684 14.968 49.0389 14.9151 49.1168C14.4323 49.8522 13.5762 50.2522 12.7025 50.1513C11.8288 50.0498 11.0864 49.4645 10.7847 48.6383C10.6469 48.2559 10.3195 47.9734 9.92165 47.8917C9.52431 47.8201 9.11736 47.9515 8.83644 48.2415C8.40172 48.7243 7.78275 48.9999 7.13333 48.9999C6.01075 48.9892 5.05532 48.1812 4.85825 47.0762C4.66118 45.9718 5.27909 44.8828 6.32851 44.4849C6.71036 44.3472 6.99341 44.0198 7.07512 43.6219C7.15203 43.224 7.02011 42.8144 6.72478 42.5367C6.24199 42.102 5.96642 41.483 5.96642 40.8336C5.97069 39.5465 7.01264 38.504 8.29972 38.5003C8.57155 38.5014 8.84018 38.5532 9.09333 38.652C9.46289 38.7887 9.87625 38.7273 10.1897 38.4885C10.5048 38.2434 10.6789 37.86 10.6565 37.4615C10.6432 37.4204 10.6352 37.3772 10.633 37.3334C10.6373 36.0463 11.6798 35.0038 12.9668 35.0001C13.7775 35.0017 14.5274 35.4321 14.9381 36.1317C14.8334 36.4933 14.7517 36.8549 14.67 37.217C14.5882 37.5785 14.5183 37.9283 14.4601 38.2787C14.451 38.2877 14.4467 38.3006 14.4483 38.3134C14.3901 38.6632 14.3431 39.0135 14.2966 39.3633C14.2614 39.6202 14.2384 39.8766 14.2149 40.1334C14.1914 40.3668 14.1797 40.5885 14.1685 40.8101C14.145 41.2069 14.1332 41.6032 14.1332 42C14.1332 42.6446 14.6555 43.1669 15.3001 43.1669C16.2914 43.1722 17.1709 43.804 17.493 44.7418C17.6222 45.1413 17.9651 45.4345 18.3801 45.5002C18.4757 45.5199 18.5739 45.528 18.6716 45.5231C18.6914 45.5231 18.7112 45.5194 18.7299 45.5119C18.7614 45.5141 18.7934 45.5103 18.8233 45.5002H38.6566C38.6684 45.1851 38.6801 44.87 38.7031 44.5667C38.7015 44.5079 38.7052 44.4497 38.7148 44.3915C38.7266 44.0807 38.7501 43.7656 38.7848 43.4467C38.8083 43.1087 38.843 42.7818 38.89 42.455C38.9365 42.1281 38.9717 41.8136 39.0182 41.4867C40.2898 33.2153 44.5601 27.6968 49.3549 25.0949C49.7282 24.8968 50.1015 24.7099 50.4748 24.547C51.3517 24.1571 52.2665 23.8602 53.2049 23.6599C49.0606 20.3803 43.9182 18.6184 38.6331 18.667C28.7167 18.6622 19.7456 24.5486 15.8016 33.6468C14.9947 33.0086 13.9954 32.663 12.9668 32.6668C10.8397 32.6684 8.98331 34.1077 8.45139 36.167C6.78139 36.112 5.20912 36.9547 4.33007 38.3759C3.45047 39.797 3.39867 41.5797 4.19335 43.0499C3.37731 43.7218 2.80747 44.6452 2.57141 45.6748C1.94657 45.8778 1.38954 46.2495 0.961764 46.7483C0.305942 47.528 0.0207549 48.5539 0.179904 49.5601C1.48674 57.8433 8.35846 61.0402 12.3249 62.2066ZM35.3316 23.4618C35.6841 22.9256 36.4034 22.7744 36.9418 23.1232C38.6977 24.3024 40.3245 25.6631 41.7947 27.1836C42.0142 27.4015 42.1371 27.699 42.1349 28.0082C42.1323 28.318 42.0057 28.6133 41.783 28.8285C41.5662 29.0437 41.2724 29.1655 40.9664 29.1666C40.654 29.1687 40.3544 29.0421 40.1381 28.8168C38.7752 27.4202 37.2745 26.1657 35.6584 25.0719C35.3994 24.9032 35.2194 24.6378 35.158 24.3349C35.0966 24.0327 35.1591 23.7176 35.3316 23.4618ZM28.2617 27.4752C28.4 27.1986 28.6425 26.9892 28.9362 26.8925C29.23 26.7964 29.5499 26.821 29.8249 26.962C32.7446 28.4499 35.2894 30.5797 37.2681 33.1918C37.44 33.4481 37.5025 33.7627 37.4411 34.0649C37.3797 34.3672 37.1997 34.6326 36.9418 34.8019C36.7538 34.9333 36.5295 35.0027 36.2998 35.0001C35.9094 34.9979 35.5463 34.8009 35.3316 34.4751C33.566 32.2091 31.3288 30.3538 28.775 29.0384C28.4983 28.9001 28.289 28.6571 28.1923 28.3639C28.0962 28.0701 28.1207 27.7502 28.2617 27.4752ZM21.1801 33.5416C21.3355 32.9237 21.9614 32.5482 22.5799 32.7015C22.7898 32.7485 27.7485 34.0665 32.6015 41.3586C32.7734 41.6149 32.8359 41.9289 32.7745 42.2318C32.7131 42.534 32.5331 42.7995 32.2752 42.9682C32.0872 43.1001 31.8629 43.1696 31.6332 43.1669C31.2428 43.1648 30.8797 42.9677 30.665 42.6419C26.3482 36.1782 22.0549 34.9766 22.0084 34.9648C21.3873 34.7998 21.0167 34.1632 21.1801 33.5416Z" fill="white"/>
<path d="M33.9668 8.16681C33.9668 8.81088 34.4891 9.33319 35.1337 9.33319C35.7778 9.33319 36.3001 8.81088 36.3001 8.16681C36.3001 8.07816 36.3001 8.06641 36.5415 7.82501C37.1284 7.32941 37.4665 6.60042 37.4665 5.83298C37.4665 5.065 37.1284 4.33601 36.5415 3.84041C36.3001 3.59795 36.3001 3.5862 36.3001 3.50021C36.3001 3.4137 36.3001 3.40088 36.5415 3.16055C37.1247 2.66121 37.4622 1.93382 37.467 1.16692C37.467 0.522308 36.9447 0 36.3001 0C35.656 0 35.1337 0.522308 35.1337 1.16692C35.1337 1.25397 35.1337 1.26572 34.8918 1.50711C34.3091 2.00592 33.9716 2.73277 33.9668 3.50021C33.9721 4.26659 34.3097 4.99397 34.8918 5.49278C35.1337 5.73204 35.1337 5.74326 35.1337 5.83351C35.1337 5.92323 35.1337 5.93391 34.8918 6.17531C34.3102 6.67358 33.9727 7.40044 33.9668 8.16681Z" fill="white"/>
<path d="M26.9668 14.0003C26.9668 14.6449 27.4891 15.1672 28.1332 15.1672C28.7778 15.1672 29.3001 14.6449 29.3001 14.0003C29.3001 13.9116 29.3001 13.9004 29.5415 13.6585C30.1284 13.1629 30.4665 12.4339 30.4665 11.6659C30.4665 10.8979 30.1284 10.1689 29.5415 9.67332C29.3001 9.433 29.3001 9.42125 29.3001 9.33366C29.3001 9.24608 29.3001 9.23486 29.5415 8.99454C30.1241 8.49519 30.4617 7.76781 30.467 7.00037C30.467 6.35629 29.9442 5.83398 29.3001 5.83398C28.6555 5.83398 28.1332 6.35629 28.1332 7.00037C28.1332 7.08795 28.1332 7.0997 27.8918 7.34003C27.3054 7.83563 26.9668 8.56409 26.9668 9.33206C26.9668 10.1 27.3054 10.8285 27.8918 11.3241C28.1332 11.5666 28.1332 11.5783 28.1332 11.667C28.1332 11.7556 28.1332 11.7674 27.8918 12.0088C27.3097 12.5076 26.9727 13.2339 26.9668 14.0003Z" fill="white"/>
<path d="M40.9663 14.0003C40.9663 14.6449 41.4886 15.1672 42.1332 15.1672C42.7773 15.1672 43.2996 14.6449 43.2996 14.0003C43.2996 13.9116 43.2996 13.9004 43.5415 13.6585C44.1279 13.1629 44.4665 12.4339 44.4665 11.6659C44.4665 10.8979 44.1279 10.1689 43.5415 9.67332C43.2996 9.433 43.2996 9.42125 43.2996 9.33366C43.2996 9.24608 43.2996 9.23486 43.5415 8.99454C44.1242 8.49519 44.4617 7.76781 44.4665 7.00037C44.4665 6.35629 43.9442 5.83398 43.2996 5.83398C42.6555 5.83398 42.1332 6.35629 42.1332 7.00037C42.1332 7.08795 42.1332 7.0997 41.8918 7.34003C41.3049 7.83563 40.9668 8.56409 40.9668 9.33206C40.9668 10.1 41.3049 10.8285 41.8918 11.3241C42.1332 11.5666 42.1332 11.5783 42.1332 11.667C42.1332 11.7556 42.1332 11.7674 41.8918 12.0088C41.3097 12.5076 40.9722 13.2339 40.9663 14.0003Z" fill="white"/>
</svg>
