<svg width="28" height="32" viewBox="0 0 28 32" fill="none" xmlns="http://www.w3.org/2000/svg">
<path d="M19.125 19.2969V19.8281C19.125 20.0495 19.0475 20.2376 18.8926 20.3926C18.7376 20.5475 18.5495 20.625 18.3281 20.625H18.0625L17.1992 26.7012C17.1549 26.9447 17.0553 27.166 16.9004 27.3652C16.7676 27.5866 16.5794 27.7526 16.3359 27.8633C16.1146 27.9961 15.8711 28.0625 15.6055 28.0625H3.51953C3.12109 28.0625 2.76693 27.9297 2.45703 27.6641C2.16927 27.4206 1.99219 27.0996 1.92578 26.7012L1.0625 20.625H0.796875C0.575521 20.625 0.38737 20.5475 0.232422 20.3926C0.077474 20.2376 0 20.0495 0 19.8281V19.2969C0 19.0755 0.077474 18.8874 0.232422 18.7324C0.38737 18.5775 0.575521 18.5 0.796875 18.5H3.02148L6.57422 13.6191C6.7513 13.3757 6.98372 13.2318 7.27148 13.1875C7.55924 13.1432 7.82487 13.2096 8.06836 13.3867C8.31185 13.5638 8.45573 13.7962 8.5 14.084C8.54427 14.3717 8.47786 14.6374 8.30078 14.8809L5.64453 18.5H13.4805L10.8242 14.8809C10.6471 14.6374 10.5807 14.3717 10.625 14.084C10.6693 13.7962 10.8132 13.5638 11.0566 13.3867C11.3001 13.2096 11.5658 13.1432 11.8535 13.1875C12.1413 13.2318 12.3737 13.3757 12.5508 13.6191L16.1035 18.5H18.3281C18.5495 18.5 18.7376 18.5775 18.8926 18.7324C19.0475 18.8874 19.125 19.0755 19.125 19.2969ZM10.3594 25.1406V21.4219C10.3594 21.2005 10.2819 21.0124 10.127 20.8574C9.97201 20.7025 9.78385 20.625 9.5625 20.625C9.34115 20.625 9.15299 20.7025 8.99805 20.8574C8.8431 21.0124 8.76562 21.2005 8.76562 21.4219V25.1406C8.76562 25.362 8.8431 25.5501 8.99805 25.7051C9.15299 25.86 9.34115 25.9375 9.5625 25.9375C9.78385 25.9375 9.97201 25.86 10.127 25.7051C10.2819 25.5501 10.3594 25.362 10.3594 25.1406ZM14.0781 25.1406V21.4219C14.0781 21.2005 14.0007 21.0124 13.8457 20.8574C13.6908 20.7025 13.5026 20.625 13.2812 20.625C13.0599 20.625 12.8717 20.7025 12.7168 20.8574C12.5618 21.0124 12.4844 21.2005 12.4844 21.4219V25.1406C12.4844 25.362 12.5618 25.5501 12.7168 25.7051C12.8717 25.86 13.0599 25.9375 13.2812 25.9375C13.5026 25.9375 13.6908 25.86 13.8457 25.7051C14.0007 25.5501 14.0781 25.362 14.0781 25.1406ZM6.64062 25.1406V21.4219C6.64062 21.2005 6.56315 21.0124 6.4082 20.8574C6.25326 20.7025 6.0651 20.625 5.84375 20.625C5.6224 20.625 5.43424 20.7025 5.2793 20.8574C5.12435 21.0124 5.04688 21.2005 5.04688 21.4219V25.1406C5.04688 25.362 5.12435 25.5501 5.2793 25.7051C5.43424 25.86 5.6224 25.9375 5.84375 25.9375C6.0651 25.9375 6.25326 25.86 6.4082 25.7051C6.56315 25.5501 6.64062 25.362 6.64062 25.1406Z" fill="#00A149"/>
<rect x="11.1201" width="16" height="16" rx="8" fill="#212121"/>
<path d="M19.2868 12.644C18.7188 12.644 18.2468 12.524 17.8708 12.284C17.5028 12.044 17.2228 11.712 17.0308 11.288C16.8468 10.864 16.7548 10.376 16.7548 9.824V5.516C16.7548 4.948 16.8428 4.452 17.0188 4.028C17.2028 3.596 17.4788 3.26 17.8468 3.02C18.2228 2.78 18.7028 2.66 19.2868 2.66C19.8708 2.66 20.3468 2.78 20.7148 3.02C21.0908 3.26 21.3668 3.596 21.5428 4.028C21.7268 4.452 21.8188 4.948 21.8188 5.516V9.824C21.8188 10.376 21.7228 10.864 21.5308 11.288C21.3468 11.712 21.0668 12.044 20.6908 12.284C20.3228 12.524 19.8548 12.644 19.2868 12.644ZM19.2868 11.216C19.5348 11.216 19.7188 11.14 19.8388 10.988C19.9588 10.836 20.0388 10.652 20.0788 10.436C20.1188 10.22 20.1388 10.008 20.1388 9.8V5.54C20.1388 5.316 20.1188 5.096 20.0788 4.88C20.0468 4.656 19.9708 4.468 19.8508 4.316C19.7308 4.164 19.5428 4.088 19.2868 4.088C19.0308 4.088 18.8428 4.164 18.7228 4.316C18.6028 4.468 18.5228 4.656 18.4828 4.88C18.4508 5.096 18.4348 5.316 18.4348 5.54V9.8C18.4348 10.008 18.4548 10.22 18.4948 10.436C18.5428 10.652 18.6268 10.836 18.7468 10.988C18.8668 11.14 19.0468 11.216 19.2868 11.216Z" fill="white"/>
</svg>
