<svg width="11" height="7" viewBox="0 0 11 7" fill="none" xmlns="http://www.w3.org/2000/svg">
<path d="M4.74805 6.60742L0.232422 2.0918C0.077474 1.93685 0 1.7487 0 1.52734C0 1.30599 0.077474 1.11784 0.232422 0.962891L0.996094 0.232422C1.15104 0.077474 1.33919 0 1.56055 0C1.7819 0 1.97005 0.077474 2.125 0.232422L5.3125 3.41992L8.5 0.232422C8.65495 0.077474 8.8431 0 9.06445 0C9.28581 0 9.47396 0.077474 9.62891 0.232422L10.3926 0.962891C10.5475 1.11784 10.625 1.30599 10.625 1.52734C10.625 1.7487 10.5475 1.93685 10.3926 2.0918L5.87695 6.60742C5.72201 6.76237 5.53385 6.83984 5.3125 6.83984C5.09115 6.83984 4.90299 6.76237 4.74805 6.60742Z" fill="#5C5C5B"/>
</svg>
